<?xml version="1.0" encoding="UTF-8" standalone="no"?>
<!-- Created with Inkscape (http://www.inkscape.org/) -->

<svg
   xmlns:dc="http://purl.org/dc/elements/1.1/"
   xmlns:cc="http://creativecommons.org/ns#"
   xmlns:rdf="http://www.w3.org/1999/02/22-rdf-syntax-ns#"
   xmlns:svg="http://www.w3.org/2000/svg"
   xmlns="http://www.w3.org/2000/svg"
   xmlns:sodipodi="http://sodipodi.sourceforge.net/DTD/sodipodi-0.dtd"
   xmlns:inkscape="http://www.inkscape.org/namespaces/inkscape"
   version="1.1"
   id="svg2"
   xml:space="preserve"
   width="498.63345"
   height="173.43222"
   viewBox="0 0 498.63345 173.43222"
   sodipodi:docname="aomedia-research-logo-rgb.svg"
   inkscape:version="0.92.4 (5da689c313, 2019-01-14)"
   inkscape:export-filename="/home/louquillio/working/aomedia-artwork/aomedia-research-logo-rgb.svg.png"
   inkscape:export-xdpi="96"
   inkscape:export-ydpi="96"><metadata
     id="metadata8"><rdf:RDF><cc:Work
         rdf:about=""><dc:format>image/svg+xml</dc:format><dc:type
           rdf:resource="http://purl.org/dc/dcmitype/StillImage" /><dc:title></dc:title></cc:Work></rdf:RDF></metadata><defs
     id="defs6">


</defs><sodipodi:namedview
     pagecolor="#ffffff"
     bordercolor="#666666"
     borderopacity="1"
     objecttolerance="10"
     gridtolerance="10"
     guidetolerance="10"
     inkscape:pageopacity="0"
     inkscape:pageshadow="2"
     inkscape:window-width="1781"
     inkscape:window-height="851"
     id="namedview4"
     showgrid="true"
     inkscape:zoom="1"
     inkscape:cx="169.16663"
     inkscape:cy="87.214899"
     inkscape:window-x="337"
     inkscape:window-y="126"
     inkscape:window-maximized="0"
     inkscape:current-layer="g10"
     showguides="true"
     inkscape:guide-bbox="true"
     fit-margin-top="0"
     fit-margin-left="0"
     fit-margin-right="0"
     fit-margin-bottom="0"><inkscape:grid
       type="xygrid"
       id="grid857"
       spacingx="100"
       spacingy="60.5"
       originx="0"
       originy="0.0015662469" /></sodipodi:namedview><g
     id="g10"
     inkscape:groupmode="layer"
     inkscape:label="ink_ext_XXXXXX"
     transform="matrix(1.3333333,0,0,-1.3333333,0,173.43066)"><path
   inkscape:connector-curvature="0"
   id="path14"
   style="fill:#6a67ba;fill-opacity:1;fill-rule:nonzero;stroke:none;stroke-width:0.1"
   d="M 109.206,35.4738 54.6031,130.073 0.00117188,35.4738 Z" /><path
   inkscape:connector-curvature="0"
   id="path16"
   style="fill:#39b776;fill-opacity:1;fill-rule:nonzero;stroke:none;stroke-width:0.1"
   d="M 109.206,35.4738 88.6859,59.1242 75.0523,35.4738 Z" /><path
   inkscape:connector-curvature="0"
   id="path18"
   style="fill:#39b776;fill-opacity:1;fill-rule:nonzero;stroke:none;stroke-width:0.1"
   d="M 20.5199,59.1242 0,35.4738 h 34.1527 z" /><path
   inkscape:connector-curvature="0"
   id="path20"
   style="fill:#222e5c;fill-opacity:1;fill-rule:nonzero;stroke:none;stroke-width:0.1"
   d="M 54.6031,-0.00117188 88.6871,59.123 H 20.5203 Z" /><path
   inkscape:connector-curvature="0"
   id="path22"
   style="fill:#100f0d;fill-opacity:1;fill-rule:nonzero;stroke:none;stroke-width:0.1"
   d="m -148.76101,236.5406 h 8.02 l -4.009,15.2494 z m 9.445,-6.2265 h -10.87 l -1.635,-6.2262 h -7.651 l 10.447,35.1941 h 8.496 l 10.5,-35.1941 h -7.652 l -1.635,6.2262" /><path
   inkscape:connector-curvature="0"
   id="path24"
   style="fill:#100f0d;fill-opacity:1;fill-rule:nonzero;stroke:none;stroke-width:0.1"
   d="m -125.96501,259.282 h 7.071 v -28.9679 h 11.819 v -6.2262 h -18.89 v 35.1941" /><path
   inkscape:connector-curvature="0"
   id="path26"
   style="fill:#100f0d;fill-opacity:1;fill-rule:nonzero;stroke:none;stroke-width:0.1"
   d="m -101.48101,259.282 h 7.071003 v -28.9679 h 11.819 v -6.2262 h -18.890003 v 35.1941" /><path
   inkscape:connector-curvature="0"
   id="path28"
   style="fill:#100f0d;fill-opacity:1;fill-rule:nonzero;stroke:none;stroke-width:0.1"
   d="m -76.733007,259.282 h 7.07 v -35.1941 h -7.07 v 35.1941" /><path
   inkscape:connector-curvature="0"
   id="path30"
   style="fill:#100f0d;fill-opacity:1;fill-rule:nonzero;stroke:none;stroke-width:0.1"
   d="m -54.096007,236.5406 h 8.021 l -4.01,15.2494 z m 9.446,-6.2265 h -10.871 l -1.634,-6.2262 h -7.652 l 10.448,35.1941 h 8.495 l 10.5,-35.1941 h -7.652 l -1.634,6.2262" /><path
   inkscape:connector-curvature="0"
   id="path32"
   style="fill:#100f0d;fill-opacity:1;fill-rule:nonzero;stroke:none;stroke-width:0.1"
   d="m -23.437007,244.93 v -20.8421 h -7.071 v 35.1941 h 7.177 l 11.503,-20.1035 v 20.1035 h 7.1229999 v -35.1941 h -6.7539999 l -11.978,20.8421" /><path
   inkscape:connector-curvature="0"
   id="path34"
   style="fill:#100f0d;fill-opacity:1;fill-rule:nonzero;stroke:none;stroke-width:0.1"
   d="m 0.57199291,241.659 c 0,10.658 5.75199999,18.204 14.93300009,18.204 6.701,0 9.921,-4.38 11.766,-8.495 l -5.909,-2.533 c -1.056,2.796 -3.06,4.749 -5.857,4.749 -4.802,0 -7.7040001,-5.013 -7.7040001,-11.925 0,-6.9129 2.9020001,-11.9254 7.7040001,-11.9254 2.902,0 4.96,2.2168 5.91,5.1187 l 5.856,-2.5328 c -1.741,-4.2211 -4.96,-8.8648 -11.766,-8.8648 -9.1810001,0 -14.93300009,7.5453 -14.93300009,18.2043" /><path
   inkscape:connector-curvature="0"
   id="path36"
   style="fill:#100f0d;fill-opacity:1;fill-rule:nonzero;stroke:none;stroke-width:0.1"
   d="m 33.287993,259.282 h 20.157 v -6.226 h -13.086 v -7.968 h 12.717 v -6.2255 h -12.717 v -8.5484 h 13.086 v -6.2262 h -20.157 v 35.1941" /><path
   inkscape:connector-curvature="0"
   id="path38"
   style="fill:#100f0d;fill-opacity:1;fill-rule:nonzero;stroke:none;stroke-width:0.1"
   d="m 73.340993,259.282 h 20.156 v -6.226 h -13.086 v -7.968 h 12.717 v -6.2255 h -12.717 v -14.7746 h -7.07 v 35.1941" /><path
   inkscape:connector-curvature="0"
   id="path40"
   style="fill:#100f0d;fill-opacity:1;fill-rule:nonzero;stroke:none;stroke-width:0.1"
   d="m 112.91699,253.584 c -4.855,0 -7.493,-5.119 -7.493,-11.925 0,-6.7539 2.638,-11.9254 7.493,-11.9254 4.802,0 7.44,5.1715 7.44,11.9254 0,6.806 -2.638,11.925 -7.44,11.925 z m 0,6.279 c 9.181,0 14.668,-7.757 14.668,-18.204 0,-10.5008 -5.487,-18.2043 -14.668,-18.2043 -9.234,0 -14.721997,7.7035 -14.721997,18.2043 0,10.447 5.487997,18.204 14.721997,18.204" /><path
   inkscape:connector-curvature="0"
   id="path42"
   style="fill:#100f0d;fill-opacity:1;fill-rule:nonzero;stroke:none;stroke-width:0.1"
   d="m 143.46899,253.056 h -5.013 v -10.0255 h 5.013 c 2.744,0 4.537,1.9525 4.537,5.0125 0,3.061 -1.793,5.013 -4.537,5.013 z m -1.214,-16.2521 h -3.799 v -12.716 h -7.07 v 35.1941 h 13.138 c 6.437,0 10.711,-4.643 10.711,-11.134 0,-6.1199 -3.218,-9.1277 -6.12,-10.0769 l 6.385,-13.9832 h -7.863 l -5.382,12.716" /><path
   inkscape:connector-curvature="0"
   id="path44"
   style="fill:#100f0d;fill-opacity:1;fill-rule:nonzero;stroke:none;stroke-width:0.1"
   d="m -145.59501,208.2496 c -4.855,0 -7.493,-5.1187 -7.493,-11.9254 0,-6.7539 2.638,-11.9238 7.493,-11.9238 4.802,0 7.439,5.1699 7.439,11.9238 0,6.8067 -2.637,11.9254 -7.439,11.9254 z m 0,6.2789 c 9.181,0 14.668,-7.7558 14.668,-18.2043 0,-10.5 -5.487,-18.2039 -14.668,-18.2039 -9.235,0 -14.721,7.7039 -14.721,18.2039 0,10.4485 5.486,18.2043 14.721,18.2043" /><path
   inkscape:connector-curvature="0"
   id="path46"
   style="fill:#100f0d;fill-opacity:1;fill-rule:nonzero;stroke:none;stroke-width:0.1"
   d="m -114.51501,207.7223 h -5.065 v -10.0258 h 5.065 c 2.692,0 4.486,1.9519 4.486,5.0125 0,3.0605 -1.794,5.0133 -4.486,5.0133 z m -12.135,6.2257 h 12.98 c 7.229,0 10.87,-5.2234 10.87,-11.239 0,-6.0156 -3.641,-11.2383 -10.87,-11.2383 h -5.91 v -12.7168 h -7.07 v 35.1941" /><path
   inkscape:connector-curvature="0"
   id="path48"
   style="fill:#100f0d;fill-opacity:1;fill-rule:nonzero;stroke:none;stroke-width:0.1"
   d="m -98.631007,213.948 h 20.157 v -6.2257 h -13.086 v -7.9684 h 12.717 v -6.2254 h -12.717 v -8.5488 h 13.086 v -6.2258 h -20.157 v 35.1941" /><path
   inkscape:connector-curvature="0"
   id="path50"
   style="fill:#100f0d;fill-opacity:1;fill-rule:nonzero;stroke:none;stroke-width:0.1"
   d="m -65.756007,199.5969 v -20.843 h -7.071 v 35.1941 h 7.177 l 11.503,-20.1031 v 20.1031 h 7.123 v -35.1941 h -6.754 l -11.978,20.843" /><path
   inkscape:connector-curvature="0"
   id="path52"
   style="fill:#100f0d;fill-opacity:1;fill-rule:nonzero;stroke:none;stroke-width:0.1"
   d="M -0.58800709,201.4953 -8.5030071,178.7539 h -2.7429999 l -7.81,22.7414 v -22.7414 h -7.071 v 35.1941 h 9.445 l 6.8069999,-19.6812 6.913,19.6812 h 9.393 v -35.1941 h -7.01899999 v 22.7414" /><path
   inkscape:connector-curvature="0"
   id="path54"
   style="fill:#100f0d;fill-opacity:1;fill-rule:nonzero;stroke:none;stroke-width:0.1"
   d="m 12.130993,213.948 h 20.156 v -6.2257 h -13.086 v -7.9684 h 12.717 v -6.2254 h -12.717 v -8.5488 h 13.086 v -6.2258 h -20.156 v 35.1941" /><path
   inkscape:connector-curvature="0"
   id="path56"
   style="fill:#100f0d;fill-opacity:1;fill-rule:nonzero;stroke:none;stroke-width:0.1"
   d="m 50.386993,184.9797 c 5.222,0 8.073,4.5906 8.073,11.3445 0,6.966 -2.744,11.3981 -8.073,11.3981 h -4.275 v -22.7426 z m -11.346,28.9683 h 11.346 c 9.709,0 15.301,-7.3335 15.301,-17.6238 0,-10.3426 -5.54,-17.5703 -15.301,-17.5703 h -11.346 v 35.1941" /><path
   inkscape:connector-curvature="0"
   id="path58"
   style="fill:#100f0d;fill-opacity:1;fill-rule:nonzero;stroke:none;stroke-width:0.1"
   d="m 70.808993,213.948 h 7.071 v -35.1941 h -7.071 v 35.1941" /><path
   inkscape:connector-curvature="0"
   id="path60"
   style="fill:#100f0d;fill-opacity:1;fill-rule:nonzero;stroke:none;stroke-width:0.1"
   d="m 93.973993,191.2063 h 8.019997 l -4.010997,15.2488 z m 9.443997,-6.2266 H 92.548993 l -1.636,-6.2258 h -7.65 l 10.448,35.1941 h 8.493997 l 10.501,-35.1941 h -7.652 l -1.636,6.2258" />





<text
   xml:space="preserve"
   style="font-style:normal;font-variant:normal;font-weight:bold;font-stretch:normal;font-size:44.61170197px;line-height:1.25;font-family:'Proxima Nova Condensed';-inkscape-font-specification:'Proxima Nova Condensed, Bold';font-variant-ligatures:normal;font-variant-caps:normal;font-variant-numeric:normal;font-feature-settings:normal;text-align:start;letter-spacing:0px;word-spacing:0px;writing-mode:lr-tb;text-anchor:start;opacity:0.93999999;fill:#3f3c84;fill-opacity:1;stroke:none;stroke-width:0.66917557"
   x="150.32845"
   y="-5.94384"
   id="text842"
   transform="scale(1,-1)"><tspan
     sodipodi:role="line"
     id="tspan840"
     x="150.32845"
     y="-5.94384"
     style="font-style:normal;font-variant:normal;font-weight:bold;font-stretch:normal;font-size:44.61170197px;font-family:'Proxima Nova Condensed';-inkscape-font-specification:'Proxima Nova Condensed, Bold';font-variant-ligatures:normal;font-variant-caps:normal;font-variant-numeric:normal;font-feature-settings:normal;text-align:start;writing-mode:lr-tb;text-anchor:start;fill:#3f3c84;fill-opacity:1;stroke-width:0.66917557">RESEARCH</tspan></text>
<g
   id="g929"
   transform="translate(2.2649765e-6,-5.6393488e-6)"
   style="opacity:0.93999999"><text
     xml:space="preserve"
     style="font-style:normal;font-variant:normal;font-weight:bold;font-stretch:normal;font-size:44.61170197px;line-height:1.25;font-family:'Proxima Nova Condensed';-inkscape-font-specification:'Proxima Nova Condensed, Bold';font-variant-ligatures:normal;font-variant-caps:normal;font-variant-numeric:normal;font-feature-settings:normal;text-align:start;letter-spacing:0px;word-spacing:0px;writing-mode:lr-tb;text-anchor:start;fill:#100f0d;fill-opacity:1;stroke:none;stroke-width:0.66917557"
     x="118.48161"
     y="-92.914078"
     id="text870"
     transform="scale(1,-1)"><tspan
       style="fill:#100f0d;fill-opacity:1;stroke-width:0.66917557"
       y="-92.914078"
       x="118.48161"
       id="tspan874"
       sodipodi:role="line">ALLIANCE FOR</tspan></text>
<text
     transform="scale(1,-1)"
     id="text845"
     y="-52.428963"
     x="131.92175"
     style="font-style:normal;font-variant:normal;font-weight:bold;font-stretch:normal;font-size:44.61170197px;line-height:1.25;font-family:'Proxima Nova Condensed';-inkscape-font-specification:'Proxima Nova Condensed, Bold';font-variant-ligatures:normal;font-variant-caps:normal;font-variant-numeric:normal;font-feature-settings:normal;text-align:start;letter-spacing:0px;word-spacing:0px;writing-mode:lr-tb;text-anchor:start;fill:#100f0d;fill-opacity:1;stroke:none;stroke-width:0.66917557"
     xml:space="preserve"><tspan
       style="fill:#100f0d;fill-opacity:1;stroke-width:0.66917557"
       sodipodi:role="line"
       id="tspan843"
       x="131.92175"
       y="-52.428963">OPEN MEDIA</tspan><tspan
       style="fill:#100f0d;fill-opacity:1;stroke-width:0.66917557"
       id="tspan847"
       sodipodi:role="line"
       x="131.92175"
       y="3.3356647" /></text>
</g>
<path
   style="opacity:0.93999999;fill:#100f0d;fill-opacity:1;stroke:#000000;stroke-width:0.59708804px;stroke-linecap:butt;stroke-linejoin:miter;stroke-opacity:1"
   d="m 212.43479,44.042445 h 67.5"
   id="path933"
   inkscape:connector-curvature="0" /></g></svg>